<svg width="23" height="23" viewBox="0 0 23 23" fill="none" xmlns="http://www.w3.org/2000/svg">
    <path d="M22.7697 21.609L14.5867 13.426C17.4609 9.91083 16.9412 4.73125 13.4261 1.85707C9.91089 -1.01711 4.73126 -0.497427 1.85708 3.01773C-1.01711 6.53289 -0.497428 11.7125 3.01774 14.5867C6.04554 17.0623 10.3983 17.0623 13.4261 14.5867L21.6091 22.7697C21.9352 23.0846 22.4548 23.0756 22.7697 22.7495C23.0769 22.4314 23.0769 21.9271 22.7697 21.609ZM8.23503 14.8017C4.61001 14.7976 1.67234 11.86 1.6683 8.23501C1.6683 4.60832 4.60833 1.6683 8.23503 1.6683C11.8617 1.6683 14.8018 4.60832 14.8018 8.23501C14.8018 11.8617 11.8617 14.8017 8.23503 14.8017Z"
          fill="#FF4747"/>
</svg>
