<svg width="36" height="36" viewBox="0 0 36 36" fill="none" xmlns="http://www.w3.org/2000/svg">
<path d="M18 0C10.8109 0 4.96216 5.84873 4.96216 13.0378C4.96216 21.9596 16.6297 35.0573 17.1265 35.6105C17.5931 36.1302 18.4077 36.1293 18.8735 35.6105C19.3702 35.0573 31.0378 21.9596 31.0378 13.0378C31.0377 5.84873 25.189 0 18 0ZM18 19.5974C14.383 19.5974 11.4404 16.6548 11.4404 13.0378C11.4404 9.42075 14.383 6.47817 18 6.47817C21.6169 6.47817 24.5595 9.42082 24.5595 13.0378C24.5595 16.6549 21.6169 19.5974 18 19.5974Z" fill="#FF4747"/>
</svg>
